<svg xmlns="http://www.w3.org/2000/svg" width="237" height="50" viewBox="0 0 237 50">
  <defs>
    <style>
      .cls-1 {
        fill-rule: evenodd;
      }
    </style>
  </defs>
  <path id="BenarBlog" class="cls-1" d="M28.905,17.456a7.508,7.508,0,0,0,1.464-4.608,7.263,7.263,0,0,0-3.1-6.168Q24.177,4.4,18.849,4.4H2.337v6.384H6.081V31.568H2.337V38H19.425q5.616,0,8.9-2.52a8.161,8.161,0,0,0,3.288-6.84,8.475,8.475,0,0,0-1.8-5.5,8.35,8.35,0,0,0-4.92-2.9A7.812,7.812,0,0,0,28.905,17.456Zm-7.368-.744a4.726,4.726,0,0,1-3.072.936h-4.7V10.784h4.9a4.435,4.435,0,0,1,2.952.912,3.041,3.041,0,0,1,1.08,2.448A3.129,3.129,0,0,1,21.537,16.712ZM13.761,31.568v-8.16h4.7a5.828,5.828,0,0,1,3.744,1.08,3.637,3.637,0,0,1,1.344,3,3.758,3.758,0,0,1-1.272,2.952,4.985,4.985,0,0,1-3.432,1.128H13.761Zm28.416-3.936H58.209q0-7.1-3.072-10.7t-8.784-3.6q-5.664,0-8.832,3.36a12.619,12.619,0,0,0-3.168,9.024q0,6,3.456,9.456a12.456,12.456,0,0,0,9.216,3.456,13.911,13.911,0,0,0,10.944-4.656l-3.6-3.792a8.6,8.6,0,0,1-6.624,3.12q-4.7,0-5.568-5.664h0Zm8.3-4.224H42.129A7.627,7.627,0,0,1,43.5,19.5a3.459,3.459,0,0,1,2.856-1.368q3.552,0,4.128,5.28h0Zm34.56-.48a10.166,10.166,0,0,0-2.3-7.008,7.984,7.984,0,0,0-6.288-2.592q-5.472,0-7.488,4.464V14H59.745v5.376h2.88V32.624h-2.88V38H72.609V32.624H69.921l-0.048-8.688A5.117,5.117,0,0,1,71,20.552a3.623,3.623,0,0,1,2.856-1.224,3.737,3.737,0,0,1,2.832,1.1,4.2,4.2,0,0,1,1.056,3.024v9.168H75.009V38H87.873V32.624H85.041v-9.7Zm26.4-.816a7.89,7.89,0,0,0-2.856-6.432q-2.857-2.351-7.992-2.352A18.8,18.8,0,0,0,90.561,16.16v5.664h6.48V18.752a13.1,13.1,0,0,1,2.976-.384q4.222,0,4.224,3.7v2.688a17.313,17.313,0,0,0-5.328-.72,11.572,11.572,0,0,0-7.224,2.016,6.54,6.54,0,0,0-2.616,5.472A6.486,6.486,0,0,0,91.3,36.7a8.924,8.924,0,0,0,6.024,1.92q5.328,0,7.728-3.6V38h9.264V32.624h-2.88V22.112ZM97.329,32.864a2.554,2.554,0,0,1-.96-2.112,2.408,2.408,0,0,1,1.056-2.088,5.018,5.018,0,0,1,2.928-.744,9.872,9.872,0,0,1,3.888.816V29.5a3.99,3.99,0,0,1-1.152,3.024,4.387,4.387,0,0,1-3.168,1.1A4.031,4.031,0,0,1,97.329,32.864Zm30.863-17.9a9,9,0,0,0-3.072,3.984L125.168,14H115.9v5.376h2.88V32.624H115.9V38h15.12V32.624H126.08l-0.048-5.616a6.38,6.38,0,0,1,2.016-4.56,7,7,0,0,1,4.944-1.728h0.816v-7.2H132.8A7.729,7.729,0,0,0,128.192,14.96Zm34.536,2.5a7.507,7.507,0,0,0,1.464-4.608,7.263,7.263,0,0,0-3.1-6.168Q158,4.4,152.672,4.4H136.16v6.384H139.9V31.568H136.16V38h17.088q5.616,0,8.9-2.52a8.16,8.16,0,0,0,3.288-6.84,8.475,8.475,0,0,0-1.8-5.5,8.349,8.349,0,0,0-4.92-2.9A7.809,7.809,0,0,0,162.728,17.456Zm-7.368-.744a4.725,4.725,0,0,1-3.072.936h-4.7V10.784h4.9a4.435,4.435,0,0,1,2.952.912,3.041,3.041,0,0,1,1.08,2.448A3.129,3.129,0,0,1,155.36,16.712Zm-7.776,14.856v-8.16h4.7a5.828,5.828,0,0,1,3.744,1.08,3.635,3.635,0,0,1,1.344,3A3.756,3.756,0,0,1,156.1,30.44a4.985,4.985,0,0,1-3.432,1.128h-5.088ZM177.968,2.96H167.792V8.336h2.88V32.624h-2.88V38H180.8V32.624h-2.832V2.96ZM203.7,35.216q3.359-3.408,3.36-9.264,0-5.807-3.36-9.216t-9.12-3.408q-5.809,0-9.192,3.408T182,25.952q0,5.857,3.384,9.264t9.192,3.408Q200.336,38.624,203.7,35.216ZM191,30.9a8.265,8.265,0,0,1-1.32-4.944A8.268,8.268,0,0,1,191,21.008a4.184,4.184,0,0,1,3.576-1.824,4.083,4.083,0,0,1,3.5,1.824,8.39,8.39,0,0,1,1.3,4.944,8.387,8.387,0,0,1-1.3,4.944,4.081,4.081,0,0,1-3.5,1.824A4.183,4.183,0,0,1,191,30.9ZM226.831,14l0.048,3.936a9.07,9.07,0,0,0-14.9-1.3q-2.616,3.312-2.616,8.976,0,5.616,2.592,8.928a9.05,9.05,0,0,0,14.112-.144v1.824a6.028,6.028,0,0,1-1.344,4.152,4.868,4.868,0,0,1-3.84,1.512,9.267,9.267,0,0,1-6.672-3.024l-3.84,4.032a14.367,14.367,0,0,0,10.752,4.224,12.324,12.324,0,0,0,8.928-3.192,11.409,11.409,0,0,0,3.312-8.616V19.376H236.1V14h-9.264Zm-9.792,11.616a8.126,8.126,0,0,1,1.2-4.7,3.772,3.772,0,0,1,3.264-1.728,3.849,3.849,0,0,1,3.288,1.7,7.891,7.891,0,0,1,1.224,4.68,8.025,8.025,0,0,1-1.224,4.68,3.97,3.97,0,0,1-6.552.048A8.007,8.007,0,0,1,217.039,25.616Z"/>
</svg>
