<svg xmlns="http://www.w3.org/2000/svg" width="223.281" height="45" viewBox="0 0 223.281 45">
  <defs>
    <style>
      .cls-1 {
        fill: #1f88FF;
/*fill: #0077FF;*/
      }
    </style>
  </defs>
  <path id="BenarBlog" class="cls-1" d="M80.586,49a12.933,12.933,0,0,0,6.072-1.32,9.681,9.681,0,0,0,3.864-3.5A9.113,9.113,0,0,0,91.866,39.3,8.7,8.7,0,0,0,89.8,33.472a11.5,11.5,0,0,0-5.856-3.48l-0.288,2.16a10.638,10.638,0,0,0,5.16-3.144A7.482,7.482,0,0,0,90.57,24.04,8.4,8.4,0,0,0,89.394,19.7a8.68,8.68,0,0,0-3.432-3.216,11.555,11.555,0,0,0-5.568-1.224h-8.88v5.328h8.064a4.859,4.859,0,0,1,3.192,1.008,3.75,3.75,0,0,1,1.224,3.072,3.728,3.728,0,0,1-1.2,3.024A4.917,4.917,0,0,1,79.53,28.7H71.514v5.28H80.25a5.338,5.338,0,0,1,2.736.672A4.435,4.435,0,0,1,84.714,36.4a5.071,5.071,0,0,1,.576,2.424,4.876,4.876,0,0,1-1.32,3.408,4.672,4.672,0,0,1-3.624,1.44H71.514V49h9.072Zm-7.392,0V15.256h-6.48V49h6.48Zm39.456-.48a11.4,11.4,0,0,0,4.176-3.024l-3.744-3.744a6.31,6.31,0,0,1-2.5,1.824,8.6,8.6,0,0,1-3.216.576,7.063,7.063,0,0,1-3.456-.816,5.448,5.448,0,0,1-2.28-2.376,8.012,8.012,0,0,1-.792-3.672,8,8,0,0,1,.744-3.576,5.373,5.373,0,0,1,2.136-2.328,6.337,6.337,0,0,1,3.264-.816,5.7,5.7,0,0,1,2.976.72,4.851,4.851,0,0,1,1.872,2.112,8.414,8.414,0,0,1,.72,3.456l2.592-1.968-16.608.048v4.7l19.536-.048a8.654,8.654,0,0,0,.24-1.416c0.031-.432.048-0.856,0.048-1.272a12.326,12.326,0,0,0-1.44-6,10.428,10.428,0,0,0-4.032-4.128,11.557,11.557,0,0,0-5.856-1.488,12.391,12.391,0,0,0-6.24,1.584,11.729,11.729,0,0,0-4.392,4.32,11.985,11.985,0,0,0-1.608,6.192,11.941,11.941,0,0,0,1.632,6.24,11.76,11.76,0,0,0,4.488,4.32,13.177,13.177,0,0,0,6.5,1.584A13.382,13.382,0,0,0,112.65,48.52ZM144.185,49V34.264a8.7,8.7,0,0,0-1.152-4.344,9.317,9.317,0,0,0-3.144-3.312,8.336,8.336,0,0,0-4.584-1.272,9.622,9.622,0,0,0-4.728,1.152,8.35,8.35,0,0,0-3.264,3.192,9.289,9.289,0,0,0-1.176,4.728l2.448,1.3a4.9,4.9,0,0,1,.6-2.424,4.124,4.124,0,0,1,1.656-1.656,4.927,4.927,0,0,1,2.4-.576,4.485,4.485,0,0,1,3.312,1.3,4.547,4.547,0,0,1,1.3,3.36V49h6.336Zm-15.6,0V25.816H122.3V49h6.288Zm34.824-.528a8.057,8.057,0,0,0,3.168-2.808,7.894,7.894,0,0,0,1.272-4.056v-8.4a7.727,7.727,0,0,0-1.3-4.08,8.344,8.344,0,0,0-3.168-2.784,9.548,9.548,0,0,0-4.416-1.008,10.551,10.551,0,0,0-5.736,1.584,11.1,11.1,0,0,0-3.96,4.32,13.091,13.091,0,0,0-1.44,6.192,12.986,12.986,0,0,0,1.44,6.144,11.1,11.1,0,0,0,3.96,4.32,10.465,10.465,0,0,0,5.688,1.584A9.8,9.8,0,0,0,163.409,48.472ZM157.1,42.856a5.65,5.65,0,0,1-2.088-2.208,6.813,6.813,0,0,1-.744-3.264,6.71,6.71,0,0,1,.744-3.216,5.613,5.613,0,0,1,5.112-3.024,5.779,5.779,0,0,1,3.072.792,5.685,5.685,0,0,1,2.064,2.232,6.839,6.839,0,0,1,.768,3.264,6.347,6.347,0,0,1-1.632,4.464,5.531,5.531,0,0,1-4.272,1.776A5.7,5.7,0,0,1,157.1,42.856ZM171.977,49V25.816h-6.336V31.48L166.7,37.1l-1.056,5.664V49h6.336Zm11.759,0V25.816h-6.288V49h6.288Zm1.272-16.632A4.451,4.451,0,0,1,188.3,31.1a5.094,5.094,0,0,1,1.7.264,2.931,2.931,0,0,1,1.272.888l3.936-4.56a6.71,6.71,0,0,0-2.424-1.8,7.858,7.858,0,0,0-3.048-.552,7.316,7.316,0,0,0-5.952,2.472,12.2,12.2,0,0,0-2.5,6.744l2.448,1.68A5.255,5.255,0,0,1,185.008,32.368ZM212.824,49a12.933,12.933,0,0,0,6.072-1.32,9.679,9.679,0,0,0,3.864-3.5A9.117,9.117,0,0,0,224.1,39.3a8.7,8.7,0,0,0-2.064-5.832,11.5,11.5,0,0,0-5.856-3.48l-0.288,2.16a10.64,10.64,0,0,0,5.16-3.144,7.481,7.481,0,0,0,1.752-4.968,8.394,8.394,0,0,0-1.176-4.344A8.682,8.682,0,0,0,218.2,16.48a11.557,11.557,0,0,0-5.568-1.224h-8.88v5.328h8.064a4.859,4.859,0,0,1,3.192,1.008,3.75,3.75,0,0,1,1.224,3.072,3.729,3.729,0,0,1-1.2,3.024,4.918,4.918,0,0,1-3.264,1.008h-8.016v5.28h8.736a5.338,5.338,0,0,1,2.736.672,4.435,4.435,0,0,1,1.728,1.752,5.071,5.071,0,0,1,.576,2.424,4.875,4.875,0,0,1-1.32,3.408,4.673,4.673,0,0,1-3.624,1.44h-8.832V49h9.072Zm-7.392,0V15.256h-6.48V49h6.48Zm29.424,0V14.3h-6.288V49h6.288Zm22.8-1.08a11.879,11.879,0,0,0,4.464-4.392,12.014,12.014,0,0,0,1.632-6.192,11.633,11.633,0,0,0-1.656-6.144,12.048,12.048,0,0,0-4.464-4.32,12.717,12.717,0,0,0-6.36-1.584,12.475,12.475,0,0,0-6.312,1.608,12.117,12.117,0,0,0-4.44,4.32,11.638,11.638,0,0,0-1.632,6.12,11.93,11.93,0,0,0,6.072,10.584,12.468,12.468,0,0,0,6.312,1.608A12.694,12.694,0,0,0,257.655,47.92ZM248.2,42.808a5.651,5.651,0,0,1-2.088-2.208,7.323,7.323,0,0,1,0-6.432,5.488,5.488,0,0,1,2.088-2.184,5.956,5.956,0,0,1,8.28,2.184,6.392,6.392,0,0,1,.792,3.216,6.717,6.717,0,0,1-.744,3.216,5.6,5.6,0,0,1-2.112,2.208,6.014,6.014,0,0,1-3.144.816A5.8,5.8,0,0,1,248.2,42.808Zm35.76,15.048a10.791,10.791,0,0,0,4.44-4.008,11.155,11.155,0,0,0,1.608-6V25.816h-6.24v6.1L284.727,37l-1.008,5.088v5.856A5.119,5.119,0,0,1,281.991,52a6.748,6.748,0,0,1-4.608,1.512,8.781,8.781,0,0,1-4.008-.84,9.68,9.68,0,0,1-3-2.424l-4.032,3.984a11.516,11.516,0,0,0,4.536,3.72,15.257,15.257,0,0,0,6.552,1.32A14.423,14.423,0,0,0,283.959,57.856Zm-2.28-10.488a8,8,0,0,0,3.144-2.76,7.914,7.914,0,0,0,1.248-4.1v-7.3a8.2,8.2,0,0,0-1.224-4.128,7.566,7.566,0,0,0-3.144-2.76,10.272,10.272,0,0,0-4.56-.984,10.643,10.643,0,0,0-9.528,5.616,12,12,0,0,0-1.416,5.856,12.276,12.276,0,0,0,1.416,5.9,10.566,10.566,0,0,0,9.528,5.664A9.914,9.914,0,0,0,281.679,47.368Zm-6.288-5.5a5.156,5.156,0,0,1-2.04-2.064,6.16,6.16,0,0,1-.72-3,5.9,5.9,0,0,1,.744-2.952,5.423,5.423,0,0,1,2.016-2.064,6.372,6.372,0,0,1,5.976,0,5.061,5.061,0,0,1,1.992,2.064,6.814,6.814,0,0,1,0,6,4.947,4.947,0,0,1-1.968,2.04,6.1,6.1,0,0,1-3.048.72A5.9,5.9,0,0,1,275.391,41.872Z" transform="translate(-66.719 -14.281)"/>
</svg>
